<svg xmlns="http://www.w3.org/2000/svg" class="graphdiagram" viewBox="-1115.7469699407936 -289.08298215078526 1518 653"><g class="layer relationships"><g class="related-pair"><g class="relationship" transform="translate(-775.1121016382039,154.59043141643784) rotate(0)"><path class="relationship" d="M 27.34279724428191 1 L 339.87863818112356 1 L 339.87863818112356 4 L 347.87863818112356 0 L 339.87863818112356 -4 L 339.87863818112356 -1 L 27.34279724428191 -1 Z" fill="rgba(0, 0, 0, 0.3)" stroke="rgb(51, 51, 51)" stroke-width="0px"/><text class="type" text-anchor="middle" baseline-shift="30%" alignment-baseline="alphabetic" x="183.61071771270272" y="0" font-size="14px" font-family="&quot;Helvetica Neue&quot;, Helvetica, Arial, sans-serif">WROTE</text></g></g><g class="related-pair"><g class="relationship" transform="translate(-392.2484912348152,154.59043141643784) rotate(-90)"><path class="relationship" d="M 34.98497222226505 1 L 85.45383432650276 1 L 85.45383432650276 4 L 93.45383432650276 0 L 85.45383432650276 -4 L 85.45383432650276 -1 L 34.98497222226505 -1 Z" fill="rgba(0, 0, 0, 0.3)" stroke="rgb(51, 51, 51)" stroke-width="0px"/><text class="type" text-anchor="middle" baseline-shift="30%" alignment-baseline="alphabetic" x="60.21940327438391" y="0" font-size="14px" font-family="&quot;Helvetica Neue&quot;, Helvetica, Arial, sans-serif">RATED</text></g></g><g class="related-pair"><g class="relationship" transform="translate(-47.279559789097675,-9.953581946885045) rotate(154.49969237804623)"><path class="relationship" d="M 27.34279724428191 1 L 339.2169325303271 1 L 339.2169325303271 4 L 347.2169325303271 0 L 339.2169325303271 -4 L 339.2169325303271 -1 L 27.34279724428191 -1 Z" fill="rgba(0, 0, 0, 0.3)" stroke="rgb(51, 51, 51)" stroke-width="0px"/><text class="type" text-anchor="middle" baseline-shift="30%" alignment-baseline="alphabetic" transform="rotate(180)" x="-183.2798648873045" y="0" font-size="14px" font-family="&quot;Helvetica Neue&quot;, Helvetica, Arial, sans-serif">Liked</text></g></g><g class="related-pair"><g class="relationship" transform="translate(-392.2484912348152,15.197614574830828) rotate(-18.65393700562677)"><path class="relationship" d="M 45.93898251510426 1 L 428.78857631591467 1 L 428.78857631591467 4 L 436.78857631591467 0 L 428.78857631591467 -4 L 428.78857631591467 -1 L 45.93898251510426 -1 Z" fill="rgba(0, 0, 0, 0.3)" stroke="rgb(51, 51, 51)" stroke-width="0px"/><text class="type" text-anchor="middle" baseline-shift="30%" alignment-baseline="alphabetic" x="237.36377941550944" y="0" font-size="14px" font-family="&quot;Helvetica Neue&quot;, Helvetica, Arial, sans-serif">IN_CATEGORY</text></g></g><g class="related-pair"><g class="relationship" transform="translate(-392.2484912348152,15.197614574830828) rotate(-170.22190068951844)"><path class="relationship" d="M 45.93898251510426 1 L 234.75837800150458 1 L 234.75837800150458 4 L 242.75837800150458 0 L 234.75837800150458 -4 L 234.75837800150458 -1 L 45.93898251510426 -1 Z" fill="rgba(0, 0, 0, 0.3)" stroke="rgb(51, 51, 51)" stroke-width="0px"/><text class="type" text-anchor="middle" baseline-shift="30%" alignment-baseline="alphabetic" transform="rotate(180)" x="-140.3486802583044" y="0" font-size="14px" font-family="&quot;Helvetica Neue&quot;, Helvetica, Arial, sans-serif">IN_ROAD</text></g></g><g class="related-pair"><g class="relationship" transform="translate(-660.1861539286868,-30.9777910015478) rotate(-162.23323072722334)"><path class="relationship" d="M 29.129023637479012 1 L 124.69435076494744 1 L 124.69435076494744 4 L 132.69435076494744 0 L 124.69435076494744 -4 L 124.69435076494744 -1 L 29.129023637479012 -1 Z" fill="rgba(0, 0, 0, 0.3)" stroke="rgb(51, 51, 51)" stroke-width="0px"/></g></g><g class="related-pair"><g class="relationship" transform="translate(-392.2484912348152,154.59043141643784) rotate(6.9077834664236395)"><path class="relationship" d="M 34.98497222226505 1 L 276.2362711093168 1 L 276.2362711093168 4 L 284.2362711093168 0 L 276.2362711093168 -4 L 276.2362711093168 -1 L 34.98497222226505 -1 Z" fill="rgba(0, 0, 0, 0.3)" stroke="rgb(51, 51, 51)" stroke-width="0px"/><text class="type" text-anchor="middle" baseline-shift="30%" alignment-baseline="alphabetic" x="155.61062166579094" y="0" font-size="14px" font-family="&quot;Helvetica Neue&quot;, Helvetica, Arial, sans-serif">IN_SEASON</text></g></g></g><g class="layer nodes"><circle class="node node-id-0" r="40.44419101510425" fill="rgb(247, 247, 249)" stroke="rgba(0, 0, 0, 0.3)" stroke-width="0.989583px" cx="-392.2484912348152" cy="15.197614574830828"/><g class="caption"><text class="caption node" text-anchor="middle" alignment-baseline="central" x="-392.2484912348152" y="15.197614574830828" fill="rgb(51, 51, 51)" font-size="14px" font-family="&quot;Helvetica Neue&quot;, Helvetica, Arial, sans-serif">Restaurant</text></g><circle class="node node-id-1" r="21.848005744281913" fill="rgb(247, 247, 249)" stroke="rgba(0, 0, 0, 0.3)" stroke-width="0.989583px" cx="-775.1121016382039" cy="154.59043141643784"/><g class="caption"><text class="caption node" text-anchor="middle" alignment-baseline="central" x="-775.1121016382039" y="154.59043141643784" fill="rgb(51, 51, 51)" font-size="14px" font-family="&quot;Helvetica Neue&quot;, Helvetica, Arial, sans-serif">User</text></g><circle class="node node-id-2" r="29.490180722265052" fill="rgb(247, 247, 249)" stroke="rgba(0, 0, 0, 0.3)" stroke-width="0.989583px" cx="-392.2484912348152" cy="154.59043141643784"/><g class="caption"><text class="caption node" text-anchor="middle" alignment-baseline="central" x="-392.2484912348152" y="154.59043141643784" fill="rgb(51, 51, 51)" font-size="14px" font-family="&quot;Helvetica Neue&quot;, Helvetica, Arial, sans-serif">Review</text></g><circle class="node node-id-5" r="21.848005744281913" fill="rgb(247, 247, 249)" stroke="rgba(0, 0, 0, 0.3)" stroke-width="0.989583px" cx="-47.279559789097675" cy="-9.953581946885045"/><g class="caption"><text class="caption node" text-anchor="middle" alignment-baseline="central" x="-47.279559789097675" y="-9.953581946885045" fill="rgb(51, 51, 51)" font-size="14px" font-family="&quot;Helvetica Neue&quot;, Helvetica, Arial, sans-serif">User</text></g><circle class="node node-id-6" r="37.16099753694852" fill="rgb(247, 247, 249)" stroke="rgba(0, 0, 0, 0.3)" stroke-width="0.989583px" cx="62.00957265218082" cy="-138.15332563176716"/><g class="caption"><text class="caption node" text-anchor="middle" alignment-baseline="central" x="62.00957265218082" y="-145.15332563176716" fill="rgb(51, 51, 51)" font-size="14px" font-family="&quot;Helvetica Neue&quot;, Helvetica, Arial, sans-serif">Food</text><text class="caption node" text-anchor="middle" alignment-baseline="central" x="62.00957265218082" y="-131.15332563176716" fill="rgb(51, 51, 51)" font-size="14px" font-family="&quot;Helvetica Neue&quot;, Helvetica, Arial, sans-serif">Category</text></g><circle class="node node-id-7" r="23.634232137479014" fill="rgb(247, 247, 249)" stroke="rgba(0, 0, 0, 0.3)" stroke-width="0.989583px" cx="-660.1861539286868" cy="-30.9777910015478"/><g class="caption"><text class="caption node" text-anchor="middle" alignment-baseline="central" x="-660.1861539286868" y="-30.9777910015478" fill="rgb(51, 51, 51)" font-size="14px" font-family="&quot;Helvetica Neue&quot;, Helvetica, Arial, sans-serif">Road</text></g><circle class="node node-id-8" r="21.854184017721714" fill="rgb(247, 247, 249)" stroke="rgba(0, 0, 0, 0.3)" stroke-width="0.989583px" cx="-812.5964588654947" cy="-79.81389687302517"/><g class="caption"><text class="caption node" text-anchor="middle" alignment-baseline="central" x="-812.5964588654947" y="-79.81389687302517" fill="rgb(51, 51, 51)" font-size="14px" font-family="&quot;Helvetica Neue&quot;, Helvetica, Arial, sans-serif">Area</text></g><circle class="node node-id-9" r="57.760304316240834" fill="rgb(247, 247, 249)" stroke="rgba(0, 0, 0, 0.3)" stroke-width="0.989583px" cx="-47.279559789097675" cy="196.38380918125108"/><g class="caption"><text class="caption node" text-anchor="middle" alignment-baseline="central" x="-47.279559789097675" y="189.38380918125108" fill="rgb(51, 51, 51)" font-size="14px" font-family="&quot;Helvetica Neue&quot;, Helvetica, Arial, sans-serif">Season(based</text><text class="caption node" text-anchor="middle" alignment-baseline="central" x="-47.279559789097675" y="203.38380918125108" fill="rgb(51, 51, 51)" font-size="14px" font-family="&quot;Helvetica Neue&quot;, Helvetica, Arial, sans-serif">on timestamp)</text></g></g><g class="layer properties"><g class="speech-bubble relationship-speech-bubble" transform="translate(-591.5013839255012,154.59043141643784) "><path class="speech-bubble-outline" transform="scale(1,1) " d="M 0 0 L -4 12 L -43.56884765625 12 A 4 4 0 0 0 -47.56884765625 16 L -47.56884765625 30 A 4 4 0 0 0 -43.56884765625 34 L 43.56884765625 34 A 4 4 0 0 0 47.56884765625 30 L 47.56884765625 16 A 4 4 0 0 0 43.56884765625 12 L 4 12 Z" fill="rgb(255, 255, 255)" stroke="rgba(0, 0, 0, 0.5)" stroke-width="0.989583px"/><text class="speech-bubble-content property-key" x="28.78271484375" y="23" alignment-baseline="central" text-anchor="end" font-size="14px" font-family="&quot;Helvetica Neue&quot;, Helvetica, Arial, sans-serif" xml:space="preserve">timestamp: </text><text class="speech-bubble-content property-value" x="28.78271484375" y="23" alignment-baseline="central" font-size="14px" font-family="&quot;Helvetica Neue&quot;, Helvetica, Arial, sans-serif">int</text></g><g class="speech-bubble relationship-speech-bubble" transform="translate(-392.2484912348152,94.37102814205393) "><path class="speech-bubble-outline" transform="scale(1,1) " d="M 0 0 L 12 -4 L 12 -14 A 4 4 0 0 1 16 -18 L 416.5654296875 -18 A 4 4 0 0 1 420.5654296875 -14 L 420.5654296875 14 A 4 4 0 0 1 416.5654296875 18 L 16 18 A 4 4 0 0 1 12 14 L 12 4 Z" fill="rgb(255, 255, 255)" stroke="rgba(0, 0, 0, 0.5)" stroke-width="0.989583px"/><text class="speech-bubble-content property-key" x="93.0478515625" y="-7" alignment-baseline="central" text-anchor="end" font-size="14px" font-family="&quot;Helvetica Neue&quot;, Helvetica, Arial, sans-serif" xml:space="preserve">rating_type: </text><text class="speech-bubble-content property-key" x="93.0478515625" y="7" alignment-baseline="central" text-anchor="end" font-size="14px" font-family="&quot;Helvetica Neue&quot;, Helvetica, Arial, sans-serif" xml:space="preserve">rating: </text><text class="speech-bubble-content property-value" x="93.0478515625" y="-7" alignment-baseline="central" font-size="14px" font-family="&quot;Helvetica Neue&quot;, Helvetica, Arial, sans-serif">string["deliciousness,customer service,atmosphere"]</text><text class="speech-bubble-content property-value" x="93.0478515625" y="7" alignment-baseline="central" font-size="14px" font-family="&quot;Helvetica Neue&quot;, Helvetica, Arial, sans-serif">int</text></g><g class="speech-bubble node-speech-bubble" transform="translate(-392.2484912348152,-25.246576440273422) "><path class="speech-bubble-outline" transform="scale(1,-1) " d="M 0 0 L -4 12 L -75.89599609375 12 A 4 4 0 0 0 -79.89599609375 16 L -79.89599609375 170 A 4 4 0 0 0 -75.89599609375 174 L 75.89599609375 174 A 4 4 0 0 0 79.89599609375 170 L 79.89599609375 16 A 4 4 0 0 0 75.89599609375 12 L 4 12 Z" fill="rgb(255, 255, 255)" stroke="rgba(0, 0, 0, 0.5)" stroke-width="0.989583px"/><text class="speech-bubble-content property-key" x="26.06884765625" y="-163" alignment-baseline="central" text-anchor="end" font-size="14px" font-family="&quot;Helvetica Neue&quot;, Helvetica, Arial, sans-serif" xml:space="preserve">restaurant_id: </text><text class="speech-bubble-content property-key" x="26.06884765625" y="-149" alignment-baseline="central" text-anchor="end" font-size="14px" font-family="&quot;Helvetica Neue&quot;, Helvetica, Arial, sans-serif" xml:space="preserve">name: </text><text class="speech-bubble-content property-value" x="26.06884765625" y="-163" alignment-baseline="central" font-size="14px" font-family="&quot;Helvetica Neue&quot;, Helvetica, Arial, sans-serif">string,</text><text class="speech-bubble-content property-value" x="26.06884765625" y="-149" alignment-baseline="central" font-size="14px" font-family="&quot;Helvetica Neue&quot;, Helvetica, Arial, sans-serif">string,</text><text class="speech-bubble-content property-key" x="26.06884765625" y="-135" alignment-baseline="central" text-anchor="end" font-size="14px" font-family="&quot;Helvetica Neue&quot;, Helvetica, Arial, sans-serif" xml:space="preserve">price: </text><text class="speech-bubble-content property-key" x="26.06884765625" y="-121" alignment-baseline="central" text-anchor="end" font-size="14px" font-family="&quot;Helvetica Neue&quot;, Helvetica, Arial, sans-serif" xml:space="preserve">address: </text><text class="speech-bubble-content property-key" x="26.06884765625" y="-107" alignment-baseline="central" text-anchor="end" font-size="14px" font-family="&quot;Helvetica Neue&quot;, Helvetica, Arial, sans-serif" xml:space="preserve">phone_number: </text><text class="speech-bubble-content property-key" x="26.06884765625" y="-93" alignment-baseline="central" text-anchor="end" font-size="14px" font-family="&quot;Helvetica Neue&quot;, Helvetica, Arial, sans-serif" xml:space="preserve">overall rating: </text><text class="speech-bubble-content property-value" x="26.06884765625" y="-135" alignment-baseline="central" font-size="14px" font-family="&quot;Helvetica Neue&quot;, Helvetica, Arial, sans-serif">int,</text><text class="speech-bubble-content property-value" x="26.06884765625" y="-121" alignment-baseline="central" font-size="14px" font-family="&quot;Helvetica Neue&quot;, Helvetica, Arial, sans-serif">string,</text><text class="speech-bubble-content property-value" x="26.06884765625" y="-107" alignment-baseline="central" font-size="14px" font-family="&quot;Helvetica Neue&quot;, Helvetica, Arial, sans-serif">string</text><text class="speech-bubble-content property-value" x="26.06884765625" y="-93" alignment-baseline="central" font-size="14px" font-family="&quot;Helvetica Neue&quot;, Helvetica, Arial, sans-serif">int,</text><text class="speech-bubble-content property-key" x="26.06884765625" y="-79" alignment-baseline="central" text-anchor="end" font-size="14px" font-family="&quot;Helvetica Neue&quot;, Helvetica, Arial, sans-serif" xml:space="preserve">no_of_view: </text><text class="speech-bubble-content property-value" x="26.06884765625" y="-79" alignment-baseline="central" font-size="14px" font-family="&quot;Helvetica Neue&quot;, Helvetica, Arial, sans-serif">int,</text><text class="speech-bubble-content property-key" x="26.06884765625" y="-65" alignment-baseline="central" text-anchor="end" font-size="14px" font-family="&quot;Helvetica Neue&quot;, Helvetica, Arial, sans-serif" xml:space="preserve">business hour: </text><text class="speech-bubble-content property-value" x="26.06884765625" y="-65" alignment-baseline="central" font-size="14px" font-family="&quot;Helvetica Neue&quot;, Helvetica, Arial, sans-serif">string</text><text class="speech-bubble-content property-key" x="26.06884765625" y="-51" alignment-baseline="central" text-anchor="end" font-size="14px" font-family="&quot;Helvetica Neue&quot;, Helvetica, Arial, sans-serif" xml:space="preserve">lat: </text><text class="speech-bubble-content property-key" x="26.06884765625" y="-37" alignment-baseline="central" text-anchor="end" font-size="14px" font-family="&quot;Helvetica Neue&quot;, Helvetica, Arial, sans-serif" xml:space="preserve">lng: </text><text class="speech-bubble-content property-value" x="26.06884765625" y="-51" alignment-baseline="central" font-size="14px" font-family="&quot;Helvetica Neue&quot;, Helvetica, Arial, sans-serif">float,</text><text class="speech-bubble-content property-value" x="26.06884765625" y="-37" alignment-baseline="central" font-size="14px" font-family="&quot;Helvetica Neue&quot;, Helvetica, Arial, sans-serif">float,</text><text class="speech-bubble-content property-key" x="26.06884765625" y="-23" alignment-baseline="central" text-anchor="end" font-size="14px" font-family="&quot;Helvetica Neue&quot;, Helvetica, Arial, sans-serif" xml:space="preserve">isopen: </text><text class="speech-bubble-content property-value" x="26.06884765625" y="-23" alignment-baseline="central" font-size="14px" font-family="&quot;Helvetica Neue&quot;, Helvetica, Arial, sans-serif">boolean</text></g><g class="speech-bubble node-speech-bubble" transform="translate(-796.9601073824857,154.59043141643784) "><path class="speech-bubble-outline" transform="scale(-1,1) " d="M 0 0 L 12 -4 L 12 -7 A 4 4 0 0 1 16 -11 L 103.9306640625 -11 A 4 4 0 0 1 107.9306640625 -7 L 107.9306640625 7 A 4 4 0 0 1 103.9306640625 11 L 16 11 A 4 4 0 0 1 12 7 L 12 4 Z" fill="rgb(255, 255, 255)" stroke="rgba(0, 0, 0, 0.5)" stroke-width="0.989583px"/><text class="speech-bubble-content property-key" x="-50.234375" y="0" alignment-baseline="central" text-anchor="end" font-size="14px" font-family="&quot;Helvetica Neue&quot;, Helvetica, Arial, sans-serif" xml:space="preserve">user_id: </text><text class="speech-bubble-content property-value" x="-50.234375" y="0" alignment-baseline="central" font-size="14px" font-family="&quot;Helvetica Neue&quot;, Helvetica, Arial, sans-serif">string</text></g><g class="speech-bubble node-speech-bubble" transform="translate(-392.2484912348152,184.0806121387029) "><path class="speech-bubble-outline" transform="scale(1,1) " d="M 0 0 L -4 12 L -59.130859375 12 A 4 4 0 0 0 -63.130859375 16 L -63.130859375 86 A 4 4 0 0 0 -59.130859375 90 L 59.130859375 90 A 4 4 0 0 0 63.130859375 86 L 63.130859375 16 A 4 4 0 0 0 59.130859375 12 L 4 12 Z" fill="rgb(255, 255, 255)" stroke="rgba(0, 0, 0, 0.5)" stroke-width="0.989583px"/><text class="speech-bubble-content property-key" x="21.0068359375" y="23" alignment-baseline="central" text-anchor="end" font-size="14px" font-family="&quot;Helvetica Neue&quot;, Helvetica, Arial, sans-serif" xml:space="preserve">review_id: </text><text class="speech-bubble-content property-key" x="21.0068359375" y="37" alignment-baseline="central" text-anchor="end" font-size="14px" font-family="&quot;Helvetica Neue&quot;, Helvetica, Arial, sans-serif" xml:space="preserve">text: </text><text class="speech-bubble-content property-value" x="21.0068359375" y="23" alignment-baseline="central" font-size="14px" font-family="&quot;Helvetica Neue&quot;, Helvetica, Arial, sans-serif">string,</text><text class="speech-bubble-content property-value" x="21.0068359375" y="37" alignment-baseline="central" font-size="14px" font-family="&quot;Helvetica Neue&quot;, Helvetica, Arial, sans-serif">string,</text><text class="speech-bubble-content property-key" x="21.0068359375" y="51" alignment-baseline="central" text-anchor="end" font-size="14px" font-family="&quot;Helvetica Neue&quot;, Helvetica, Arial, sans-serif" xml:space="preserve">total view: </text><text class="speech-bubble-content property-value" x="21.0068359375" y="51" alignment-baseline="central" font-size="14px" font-family="&quot;Helvetica Neue&quot;, Helvetica, Arial, sans-serif">int,</text><text class="speech-bubble-content property-key" x="21.0068359375" y="65" alignment-baseline="central" text-anchor="end" font-size="14px" font-family="&quot;Helvetica Neue&quot;, Helvetica, Arial, sans-serif" xml:space="preserve">total replies: </text><text class="speech-bubble-content property-value" x="21.0068359375" y="65" alignment-baseline="central" font-size="14px" font-family="&quot;Helvetica Neue&quot;, Helvetica, Arial, sans-serif">int,</text><text class="speech-bubble-content property-key" x="21.0068359375" y="79" alignment-baseline="central" text-anchor="end" font-size="14px" font-family="&quot;Helvetica Neue&quot;, Helvetica, Arial, sans-serif" xml:space="preserve">time_stamp: </text><text class="speech-bubble-content property-value" x="21.0068359375" y="79" alignment-baseline="central" font-size="14px" font-family="&quot;Helvetica Neue&quot;, Helvetica, Arial, sans-serif">int</text></g><g class="speech-bubble node-speech-bubble" transform="translate(-31.830686771913292,-25.402454964069427) "><path class="speech-bubble-outline" transform="scale(1,-1) " d="M 0 0 L 16 12 L 103.9306640625 12 A 4 4 0 0 1 107.9306640625 16 L 107.9306640625 30 A 4 4 0 0 1 103.9306640625 34 L 16 34 A 4 4 0 0 1 12 30 L 12 16 Z" fill="rgb(255, 255, 255)" stroke="rgba(0, 0, 0, 0.5)" stroke-width="0.989583px"/><text class="speech-bubble-content property-key" x="69.6962890625" y="-23" alignment-baseline="central" text-anchor="end" font-size="14px" font-family="&quot;Helvetica Neue&quot;, Helvetica, Arial, sans-serif" xml:space="preserve">user_id: </text><text class="speech-bubble-content property-value" x="69.6962890625" y="-23" alignment-baseline="central" font-size="14px" font-family="&quot;Helvetica Neue&quot;, Helvetica, Arial, sans-serif">string</text></g><g class="speech-bubble node-speech-bubble" transform="translate(99.17057018912934,-138.15332563176716) "><path class="speech-bubble-outline" transform="scale(1,1) " d="M 0 0 L 12 -4 L 12 -14 A 4 4 0 0 1 16 -18 L 154.5166015625 -18 A 4 4 0 0 1 158.5166015625 -14 L 158.5166015625 14 A 4 4 0 0 1 154.5166015625 18 L 16 18 A 4 4 0 0 1 12 14 L 12 4 Z" fill="rgb(255, 255, 255)" stroke="rgba(0, 0, 0, 0.5)" stroke-width="0.989583px"/><text class="speech-bubble-content property-key" x="120.2822265625" y="-7" alignment-baseline="central" text-anchor="end" font-size="14px" font-family="&quot;Helvetica Neue&quot;, Helvetica, Arial, sans-serif" xml:space="preserve">category_id: </text><text class="speech-bubble-content property-key" x="120.2822265625" y="7" alignment-baseline="central" text-anchor="end" font-size="14px" font-family="&quot;Helvetica Neue&quot;, Helvetica, Arial, sans-serif" xml:space="preserve">category_name: </text><text class="speech-bubble-content property-value" x="120.2822265625" y="-7" alignment-baseline="central" font-size="14px" font-family="&quot;Helvetica Neue&quot;, Helvetica, Arial, sans-serif">int,</text><text class="speech-bubble-content property-value" x="120.2822265625" y="7" alignment-baseline="central" font-size="14px" font-family="&quot;Helvetica Neue&quot;, Helvetica, Arial, sans-serif">string</text></g><g class="speech-bubble node-speech-bubble" transform="translate(-660.1861539286868,-7.343558864068786) "><path class="speech-bubble-outline" transform="scale(1,1) " d="M 0 0 L -4 12 L -56.42041015625 12 A 4 4 0 0 0 -60.42041015625 16 L -60.42041015625 44 A 4 4 0 0 0 -56.42041015625 48 L 56.42041015625 48 A 4 4 0 0 0 60.42041015625 44 L 60.42041015625 16 A 4 4 0 0 0 56.42041015625 12 L 4 12 Z" fill="rgb(255, 255, 255)" stroke="rgba(0, 0, 0, 0.5)" stroke-width="0.989583px"/><text class="speech-bubble-content property-key" x="22.18603515625" y="23" alignment-baseline="central" text-anchor="end" font-size="14px" font-family="&quot;Helvetica Neue&quot;, Helvetica, Arial, sans-serif" xml:space="preserve">road_id: </text><text class="speech-bubble-content property-key" x="22.18603515625" y="37" alignment-baseline="central" text-anchor="end" font-size="14px" font-family="&quot;Helvetica Neue&quot;, Helvetica, Arial, sans-serif" xml:space="preserve">area_name: </text><text class="speech-bubble-content property-value" x="22.18603515625" y="23" alignment-baseline="central" font-size="14px" font-family="&quot;Helvetica Neue&quot;, Helvetica, Arial, sans-serif">string</text><text class="speech-bubble-content property-value" x="22.18603515625" y="37" alignment-baseline="central" font-size="14px" font-family="&quot;Helvetica Neue&quot;, Helvetica, Arial, sans-serif">string</text></g><g class="speech-bubble node-speech-bubble" transform="translate(-834.4506428832165,-79.81389687302517) "><path class="speech-bubble-outline" transform="scale(-1,1) " d="M 0 0 L 12 -4 L 12 -14 A 4 4 0 0 1 16 -18 L 132.73046875 -18 A 4 4 0 0 1 136.73046875 -14 L 136.73046875 14 A 4 4 0 0 1 132.73046875 18 L 16 18 A 4 4 0 0 1 12 14 L 12 4 Z" fill="rgb(255, 255, 255)" stroke="rgba(0, 0, 0, 0.5)" stroke-width="0.989583px"/><text class="speech-bubble-content property-key" x="-54.1240234375" y="-7" alignment-baseline="central" text-anchor="end" font-size="14px" font-family="&quot;Helvetica Neue&quot;, Helvetica, Arial, sans-serif" xml:space="preserve">area_id: </text><text class="speech-bubble-content property-key" x="-54.1240234375" y="7" alignment-baseline="central" text-anchor="end" font-size="14px" font-family="&quot;Helvetica Neue&quot;, Helvetica, Arial, sans-serif" xml:space="preserve">area_name: </text><text class="speech-bubble-content property-value" x="-54.1240234375" y="-7" alignment-baseline="central" font-size="14px" font-family="&quot;Helvetica Neue&quot;, Helvetica, Arial, sans-serif">string,</text><text class="speech-bubble-content property-value" x="-54.1240234375" y="7" alignment-baseline="central" font-size="14px" font-family="&quot;Helvetica Neue&quot;, Helvetica, Arial, sans-serif">string</text></g><g class="speech-bubble node-speech-bubble" transform="translate(10.480744527143159,196.38380918125108) "><path class="speech-bubble-outline" transform="scale(1,1) " d="M 0 0 L 12 -4 L 12 -14 A 4 4 0 0 1 16 -18 L 149.8544921875 -18 A 4 4 0 0 1 153.8544921875 -14 L 153.8544921875 14 A 4 4 0 0 1 149.8544921875 18 L 16 18 A 4 4 0 0 1 12 14 L 12 4 Z" fill="rgb(255, 255, 255)" stroke="rgba(0, 0, 0, 0.5)" stroke-width="0.989583px"/><text class="speech-bubble-content property-key" x="111.73046875" y="-7" alignment-baseline="central" text-anchor="end" font-size="14px" font-family="&quot;Helvetica Neue&quot;, Helvetica, Arial, sans-serif" xml:space="preserve">season_id: </text><text class="speech-bubble-content property-key" x="111.73046875" y="7" alignment-baseline="central" text-anchor="end" font-size="14px" font-family="&quot;Helvetica Neue&quot;, Helvetica, Arial, sans-serif" xml:space="preserve">season_name: </text><text class="speech-bubble-content property-value" x="111.73046875" y="-7" alignment-baseline="central" font-size="14px" font-family="&quot;Helvetica Neue&quot;, Helvetica, Arial, sans-serif">string,</text><text class="speech-bubble-content property-value" x="111.73046875" y="7" alignment-baseline="central" font-size="14px" font-family="&quot;Helvetica Neue&quot;, Helvetica, Arial, sans-serif">string</text></g></g><g class="layer overlay"><circle class="node overlay" r="40.93898251510426" stroke="none" fill="rgba(255, 255, 255, 0)" cx="-392.2484912348152" cy="15.197614574830828"/><circle class="node ring" r="45.93898251510426" fill="none" stroke="rgba(255, 255, 255, 0)" stroke-width="10px" cx="-392.2484912348152" cy="15.197614574830828"/><circle class="node overlay" r="22.34279724428191" stroke="none" fill="rgba(255, 255, 255, 0)" cx="-775.1121016382039" cy="154.59043141643784"/><circle class="node ring" r="27.34279724428191" fill="none" stroke="rgba(255, 255, 255, 0)" stroke-width="10px" cx="-775.1121016382039" cy="154.59043141643784"/><circle class="node overlay" r="29.98497222226505" stroke="none" fill="rgba(255, 255, 255, 0)" cx="-392.2484912348152" cy="154.59043141643784"/><circle class="node ring" r="34.98497222226505" fill="none" stroke="rgba(255, 255, 255, 0)" stroke-width="10px" cx="-392.2484912348152" cy="154.59043141643784"/><path class="relationship overlay" fill="rgba(255, 255, 255, 0)" stroke="rgba(255, 255, 255, 0)" stroke-width="10px" transform="translate(-775.1121016382039,154.59043141643784) rotate(0)" d="M 27.34279724428191 1 L 339.87863818112356 1 L 339.87863818112356 4 L 347.87863818112356 0 L 339.87863818112356 -4 L 339.87863818112356 -1 L 27.34279724428191 -1 Z"/><path class="relationship overlay" fill="rgba(255, 255, 255, 0)" stroke="rgba(255, 255, 255, 0)" stroke-width="10px" transform="translate(-392.2484912348152,154.59043141643784) rotate(-90)" d="M 34.98497222226505 1 L 85.45383432650276 1 L 85.45383432650276 4 L 93.45383432650276 0 L 85.45383432650276 -4 L 85.45383432650276 -1 L 34.98497222226505 -1 Z"/><circle class="node overlay" r="22.34279724428191" stroke="none" fill="rgba(255, 255, 255, 0)" cx="-47.279559789097675" cy="-9.953581946885045"/><circle class="node ring" r="27.34279724428191" fill="none" stroke="rgba(255, 255, 255, 0)" stroke-width="10px" cx="-47.279559789097675" cy="-9.953581946885045"/><path class="relationship overlay" fill="rgba(255, 255, 255, 0)" stroke="rgba(255, 255, 255, 0)" stroke-width="10px" transform="translate(-47.279559789097675,-9.953581946885045) rotate(154.49969237804623)" d="M 27.34279724428191 1 L 339.2169325303271 1 L 339.2169325303271 4 L 347.2169325303271 0 L 339.2169325303271 -4 L 339.2169325303271 -1 L 27.34279724428191 -1 Z"/><circle class="node overlay" r="37.655789036948526" stroke="none" fill="rgba(255, 255, 255, 0)" cx="62.00957265218082" cy="-138.15332563176716"/><circle class="node ring" r="42.655789036948526" fill="none" stroke="rgba(255, 255, 255, 0)" stroke-width="10px" cx="62.00957265218082" cy="-138.15332563176716"/><path class="relationship overlay" fill="rgba(255, 255, 255, 0)" stroke="rgba(255, 255, 255, 0)" stroke-width="10px" transform="translate(-392.2484912348152,15.197614574830828) rotate(-18.65393700562677)" d="M 45.93898251510426 1 L 428.78857631591467 1 L 428.78857631591467 4 L 436.78857631591467 0 L 428.78857631591467 -4 L 428.78857631591467 -1 L 45.93898251510426 -1 Z"/><circle class="node overlay" r="24.129023637479012" stroke="none" fill="rgba(255, 255, 255, 0)" cx="-660.1861539286868" cy="-30.9777910015478"/><circle class="node ring" r="29.129023637479012" fill="none" stroke="rgba(255, 255, 255, 0)" stroke-width="10px" cx="-660.1861539286868" cy="-30.9777910015478"/><path class="relationship overlay" fill="rgba(255, 255, 255, 0)" stroke="rgba(255, 255, 255, 0)" stroke-width="10px" transform="translate(-392.2484912348152,15.197614574830828) rotate(-170.22190068951844)" d="M 45.93898251510426 1 L 234.75837800150458 1 L 234.75837800150458 4 L 242.75837800150458 0 L 234.75837800150458 -4 L 234.75837800150458 -1 L 45.93898251510426 -1 Z"/><circle class="node overlay" r="22.348975517721712" stroke="none" fill="rgba(255, 255, 255, 0)" cx="-812.5964588654947" cy="-79.81389687302517"/><circle class="node ring" r="27.348975517721712" fill="none" stroke="rgba(255, 255, 255, 0)" stroke-width="10px" cx="-812.5964588654947" cy="-79.81389687302517"/><path class="relationship overlay" fill="rgba(255, 255, 255, 0)" stroke="rgba(255, 255, 255, 0)" stroke-width="10px" transform="translate(-660.1861539286868,-30.9777910015478) rotate(-162.23323072722334)" d="M 29.129023637479012 1 L 124.69435076494744 1 L 124.69435076494744 4 L 132.69435076494744 0 L 124.69435076494744 -4 L 124.69435076494744 -1 L 29.129023637479012 -1 Z"/><circle class="node overlay" r="58.25509581624084" stroke="none" fill="rgba(255, 255, 255, 0)" cx="-47.279559789097675" cy="196.38380918125108"/><circle class="node ring" r="63.25509581624084" fill="none" stroke="rgba(255, 255, 255, 0)" stroke-width="10px" cx="-47.279559789097675" cy="196.38380918125108"/><path class="relationship overlay" fill="rgba(255, 255, 255, 0)" stroke="rgba(255, 255, 255, 0)" stroke-width="10px" transform="translate(-392.2484912348152,154.59043141643784) rotate(6.9077834664236395)" d="M 34.98497222226505 1 L 276.2362711093168 1 L 276.2362711093168 4 L 284.2362711093168 0 L 276.2362711093168 -4 L 276.2362711093168 -1 L 34.98497222226505 -1 Z"/></g></svg>