<svg xmlns="http://www.w3.org/2000/svg" class="graphdiagram" viewBox="NaN NaN NaN NaN"><g class="layer relationships"><g class="related-pair"><g class="relationship" transform="translate(769.8799999999993,156.71999999999963) rotate(164.12525917971604)"><path class="relationship" d="M 26.20690632574555 1 L 254.75349890069072 1 L 254.75349890069072 4 L 262.7534989006907 0 L 254.75349890069072 -4 L 254.75349890069072 -1 L 26.20690632574555 -1 Z" fill="rgba(0, 0, 0, 0.3)" stroke="rgb(51, 51, 51)" stroke-width="0px"/><text class="type" text-anchor="middle" baseline-shift="30%" alignment-baseline="alphabetic" x="-140.48020261321813" y="0" font-size="14px" font-family="&quot;Helvetica Neue&quot;,Helvetica,Arial,sans-serif" transform="rotate(180)">Rated</text></g></g><g class="related-pair"><g class="relationship" transform="translate(769.8799999999993,298.5199999999998) rotate(-166.90534170422845)"><path class="relationship" d="M 26.20690632574555 1 L 251.2007286926074 1 L 251.2007286926074 4 L 259.2007286926074 0 L 251.2007286926074 -4 L 251.2007286926074 -1 L 26.20690632574555 -1 Z" fill="rgba(0, 0, 0, 0.3)" stroke="rgb(51, 51, 51)" stroke-width="0px"/><text class="type" text-anchor="middle" baseline-shift="30%" alignment-baseline="alphabetic" transform="rotate(180)" x="-138.70381750917647" y="0" font-size="14px" font-family="&quot;Helvetica Neue&quot;,Helvetica,Arial,sans-serif">Rated</text></g></g><g class="related-pair"><g class="relationship" transform="translate(495.59999999999957,234.7199999999998) rotate(-50.75094376690682)"><path class="relationship" d="M 22.40175425099138 1 L 114.47412662210235 1 L 114.47412662210235 4 L 122.47412662210235 0 L 114.47412662210235 -4 L 114.47412662210235 -1 L 22.40175425099138 -1 Z" fill="rgba(0, 0, 0, 0.3)" stroke="rgb(51, 51, 51)" stroke-width="0px"/></g></g><g class="related-pair"><g class="relationship" transform="translate(591.6799999999993,117.1199999999999) rotate(12.528807709151428)"><path class="relationship" d="M 29.384776310850235 1 L 148.34007392865357 1 L 148.34007392865357 4 L 156.34007392865357 0 L 148.34007392865357 -4 L 148.34007392865357 -1 L 29.384776310850235 -1 Z" fill="rgba(0, 0, 0, 0.3)" stroke="rgb(51, 51, 51)" stroke-width="0px"/></g></g><g class="related-pair"><g class="relationship" transform="translate(769.8799999999993,156.71999999999963) rotate(32.66091272167368)"><path class="relationship" d="M 26.20690632574555 1 L 112.91438111319468 1 L 112.91438111319468 4 L 120.91438111319468 0 L 112.91438111319468 -4 L 112.91438111319468 -1 L 26.20690632574555 -1 Z" fill="rgba(0, 0, 0, 0.3)" stroke="rgb(51, 51, 51)" stroke-width="0px"/></g></g><g class="related-pair"><g class="relationship" transform="translate(891.5600000000002,234.7199999999998) rotate(152.33080432088187)"><path class="relationship" d="M 23.61942946412396 1 L 103.18473243003974 1 L 103.18473243003974 4 L 111.18473243003974 0 L 103.18473243003974 -4 L 103.18473243003974 -1 L 23.61942946412396 -1 Z" fill="rgba(0, 0, 0, 0.3)" stroke="rgb(51, 51, 51)" stroke-width="0px"/></g></g><g class="related-pair"><g class="relationship" transform="translate(495.59999999999957,234.7199999999998) rotate(46.06869272754315)"><path class="relationship" d="M 22.40175425099138 1 L 235.72856448163077 1 L 235.72856448163077 4 L 243.72856448163077 0 L 235.72856448163077 -4 L 235.72856448163077 -1 L 22.40175425099138 -1 Z" fill="rgba(0, 0, 0, 0.3)" stroke="rgb(51, 51, 51)" stroke-width="0px"/></g></g><g class="related-pair"><g class="relationship" transform="translate(769.8799999999993,298.5199999999998) rotate(55.59923261456642)"><path class="relationship" d="M 26.20690632574555 1 L 65.87108289477203 1 L 65.87108289477203 4 L 73.87108289477203 0 L 65.87108289477203 -4 L 65.87108289477203 -1 L 26.20690632574555 -1 Z" fill="rgba(0, 0, 0, 0.3)" stroke="rgb(51, 51, 51)" stroke-width="0px"/></g></g><g class="related-pair"><g class="relationship" transform="translate(824.9599999999997,378.9599999999998) rotate(160.55490281280606)"><path class="relationship" d="M 23.61942946412396 1 L 121.67432428917706 1 L 121.67432428917706 4 L 129.67432428917706 0 L 121.67432428917706 -4 L 121.67432428917706 -1 L 23.61942946412396 -1 Z" fill="rgba(0, 0, 0, 0.3)" stroke="rgb(51, 51, 51)" stroke-width="0px"/></g></g></g><g class="layer nodes"><circle class="node node-id-0" r="16.90175425099138" fill="rgb(247, 247, 249)" stroke="rgba(0, 0, 0, 0.3)" stroke-width="1px" cx="495.59999999999957" cy="234.7199999999998"/><g class="caption"><text class="caption node" text-anchor="middle" alignment-baseline="central" x="495.59999999999957" y="234.7199999999998" fill="rgb(51, 51, 51)" font-size="14px" font-family="&quot;Helvetica Neue&quot;,Helvetica,Arial,sans-serif">R1</text></g><circle class="node node-id-1" r="20.70690632574555" fill="rgb(247, 247, 249)" stroke="rgba(0, 0, 0, 0.3)" stroke-width="1px" cx="769.8799999999993" cy="156.71999999999963"/><g class="caption"><text class="caption node" text-anchor="middle" alignment-baseline="central" x="769.8799999999993" y="156.71999999999963" fill="rgb(51, 51, 51)" font-size="14px" font-family="&quot;Helvetica Neue&quot;,Helvetica,Arial,sans-serif">RV1</text></g><circle class="node node-id-2" r="20.70690632574555" fill="rgb(247, 247, 249)" stroke="rgba(0, 0, 0, 0.3)" stroke-width="1px" cx="769.8799999999993" cy="298.5199999999998"/><g class="caption"><text class="caption node" text-anchor="middle" alignment-baseline="central" x="769.8799999999993" y="298.5199999999998" fill="rgb(51, 51, 51)" font-size="14px" font-family="&quot;Helvetica Neue&quot;,Helvetica,Arial,sans-serif">RV2</text></g><circle class="node node-id-3" r="23.884776310850235" fill="rgb(247, 247, 249)" stroke="rgba(0, 0, 0, 0.3)" stroke-width="1px" cx="591.6799999999993" cy="117.1199999999999"/><g class="caption"><text class="caption node" text-anchor="middle" alignment-baseline="central" x="591.6799999999993" y="117.1199999999999" fill="rgb(51, 51, 51)" font-size="14px" font-family="&quot;Helvetica Neue&quot;,Helvetica,Arial,sans-serif">latest</text></g><circle class="node node-id-4" r="18.11942946412396" fill="rgb(247, 247, 249)" stroke="rgba(0, 0, 0, 0.3)" stroke-width="1px" cx="891.5600000000002" cy="234.7199999999998"/><g class="caption"><text class="caption node" text-anchor="middle" alignment-baseline="central" x="891.5600000000002" y="234.7199999999998" fill="rgb(51, 51, 51)" font-size="14px" font-family="&quot;Helvetica Neue&quot;,Helvetica,Arial,sans-serif">pre</text></g><circle class="node node-id-5" r="15.5" fill="rgb(247, 247, 249)" stroke="rgba(0, 0, 0, 0.3)" stroke-width="1px" cx="1482.76" cy="474.9599999999999"/><circle class="node node-id-7" r="20.70690632574555" fill="rgb(247, 247, 249)" stroke="rgba(0, 0, 0, 0.3)" stroke-width="1px" cx="682.8799999999994" cy="429.1199999999997"/><g class="caption"><text class="caption node" text-anchor="middle" alignment-baseline="central" x="682.8799999999994" y="429.1199999999997" fill="rgb(51, 51, 51)" font-size="14px" font-family="&quot;Helvetica Neue&quot;,Helvetica,Arial,sans-serif">RV3</text></g><circle class="node node-id-8" r="18.11942946412396" fill="rgb(247, 247, 249)" stroke="rgba(0, 0, 0, 0.3)" stroke-width="1px" cx="824.9599999999997" cy="378.9599999999998"/><g class="caption"><text class="caption node" text-anchor="middle" alignment-baseline="central" x="824.9599999999997" y="378.9599999999998" fill="rgb(51, 51, 51)" font-size="14px" font-family="&quot;Helvetica Neue&quot;,Helvetica,Arial,sans-serif">pre</text></g><circle class="node node-id-9" r="15.5" fill="rgb(247, 247, 249)" stroke="rgba(0, 0, 0, 0.3)" stroke-width="1px" cx="1015.1199999999998" cy="736.0799999999997"/><circle class="node node-id-10" r="15.5" fill="rgb(247, 247, 249)" stroke="rgba(0, 0, 0, 0.3)" stroke-width="1px" cx="682.8799999999994" cy="429.1199999999997"/><circle class="node node-id-11" r="15.5" fill="rgb(247, 247, 249)" stroke="rgba(0, 0, 0, 0.3)" stroke-width="1px" cx="1482.76" cy="378.9599999999998"/></g><g class="layer properties"><g class="speech-bubble node-speech-bubble" transform="translate(478.6982457490082,234.7199999999998) "><path class="speech-bubble-outline" transform="scale(-1,1) " d="M 0 0 L 12 -4 L 12 -7 A 4 4 0 0 1 16 -11 L 77 -11 A 4 4 0 0 1 81 -7 L 81 7 A 4 4 0 0 1 77 11 L 16 11 A 4 4 0 0 1 12 7 L 12 4 Z" fill="rgb(255, 255, 255)" stroke="rgba(0, 0, 0, 0.5)" stroke-width="1px"/><text class="speech-bubble-content property-key" x="-34" y="0" alignment-baseline="central" text-anchor="end" font-size="14px" font-family="&quot;Helvetica Neue&quot;,Helvetica,Arial,sans-serif" xml:space="preserve">name: </text><text class="speech-bubble-content property-value" x="-34" y="0" alignment-baseline="central" font-size="14px" font-family="&quot;Helvetica Neue&quot;,Helvetica,Arial,sans-serif">R1</text></g><g class="speech-bubble node-speech-bubble" transform="translate(784.5219938803286,142.07800611967033) "><path class="speech-bubble-outline" transform="scale(1,-1) " d="M 0 0 L 16 12 L 151 12 A 4 4 0 0 1 155 16 L 155 30 A 4 4 0 0 1 151 34 L 16 34 A 4 4 0 0 1 12 30 L 12 16 Z" fill="rgb(255, 255, 255)" stroke="rgba(0, 0, 0, 0.5)" stroke-width="1px"/><text class="speech-bubble-content property-key" x="88" y="-23" alignment-baseline="central" text-anchor="end" font-size="14px" font-family="&quot;Helvetica Neue&quot;,Helvetica,Arial,sans-serif" xml:space="preserve">timestamp: </text><text class="speech-bubble-content property-value" x="88" y="-23" alignment-baseline="central" font-size="14px" font-family="&quot;Helvetica Neue&quot;,Helvetica,Arial,sans-serif">20171130</text></g><g class="speech-bubble node-speech-bubble" transform="translate(769.8799999999993,277.8130936742543) "><path class="speech-bubble-outline" transform="scale(1,-1) " d="M 0 0 L -4 12 L -67.5 12 A 4 4 0 0 0 -71.5 16 L -71.5 30 A 4 4 0 0 0 -67.5 34 L 67.5 34 A 4 4 0 0 0 71.5 30 L 71.5 16 A 4 4 0 0 0 67.5 12 L 4 12 Z" fill="rgb(255, 255, 255)" stroke="rgba(0, 0, 0, 0.5)" stroke-width="1px"/><text class="speech-bubble-content property-key" x="4.5" y="-23" alignment-baseline="central" text-anchor="end" font-size="14px" font-family="&quot;Helvetica Neue&quot;,Helvetica,Arial,sans-serif" xml:space="preserve">timestamp: </text><text class="speech-bubble-content property-value" x="4.5" y="-23" alignment-baseline="central" font-size="14px" font-family="&quot;Helvetica Neue&quot;,Helvetica,Arial,sans-serif">20171129</text></g><g class="speech-bubble node-speech-bubble" transform="translate(697.5219938803288,443.76199388032904) "><path class="speech-bubble-outline" transform="scale(1,1) " d="M 0 0 L 16 12 L 151 12 A 4 4 0 0 1 155 16 L 155 30 A 4 4 0 0 1 151 34 L 16 34 A 4 4 0 0 1 12 30 L 12 16 Z" fill="rgb(255, 255, 255)" stroke="rgba(0, 0, 0, 0.5)" stroke-width="1px"/><text class="speech-bubble-content property-key" x="88" y="23" alignment-baseline="central" text-anchor="end" font-size="14px" font-family="&quot;Helvetica Neue&quot;,Helvetica,Arial,sans-serif" xml:space="preserve">timestamp: </text><text class="speech-bubble-content property-value" x="88" y="23" alignment-baseline="central" font-size="14px" font-family="&quot;Helvetica Neue&quot;,Helvetica,Arial,sans-serif">20171128</text></g></g><g class="layer overlay"><circle class="node overlay" r="17.40175425099138" stroke="none" fill="rgba(255, 255, 255, 0)" cx="495.59999999999957" cy="234.7199999999998"/><circle class="node ring" r="22.40175425099138" fill="none" stroke="rgba(255, 255, 255, 0)" stroke-width="10px" cx="495.59999999999957" cy="234.7199999999998"/><circle class="node overlay" r="21.20690632574555" stroke="none" fill="rgba(255, 255, 255, 0)" cx="769.8799999999993" cy="156.71999999999963"/><circle class="node ring" r="26.20690632574555" fill="none" stroke="rgba(255, 255, 255, 0)" stroke-width="10px" cx="769.8799999999993" cy="156.71999999999963"/><path class="relationship overlay" fill="rgba(255, 255, 255, 0)" stroke="rgba(255, 255, 255, 0)" stroke-width="10px" transform="translate(769.8799999999993,156.71999999999963) rotate(164.12525917971604)" d="M 26.20690632574555 1 L 254.75349890069072 1 L 254.75349890069072 4 L 262.7534989006907 0 L 254.75349890069072 -4 L 254.75349890069072 -1 L 26.20690632574555 -1 Z"/><circle class="node overlay" r="21.20690632574555" stroke="none" fill="rgba(255, 255, 255, 0)" cx="769.8799999999993" cy="298.5199999999998"/><circle class="node ring" r="26.20690632574555" fill="none" stroke="rgba(255, 255, 255, 0)" stroke-width="10px" cx="769.8799999999993" cy="298.5199999999998"/><path class="relationship overlay" fill="rgba(255, 255, 255, 0)" stroke="rgba(255, 255, 255, 0)" stroke-width="10px" transform="translate(769.8799999999993,298.5199999999998) rotate(-166.90534170422845)" d="M 26.20690632574555 1 L 251.2007286926074 1 L 251.2007286926074 4 L 259.2007286926074 0 L 251.2007286926074 -4 L 251.2007286926074 -1 L 26.20690632574555 -1 Z"/><circle class="node overlay" r="24.384776310850235" stroke="none" fill="rgba(255, 255, 255, 0)" cx="591.6799999999993" cy="117.1199999999999"/><circle class="node ring" r="29.384776310850235" fill="none" stroke="rgba(255, 255, 255, 0)" stroke-width="10px" cx="591.6799999999993" cy="117.1199999999999"/><path class="relationship overlay" fill="rgba(255, 255, 255, 0)" stroke="rgba(255, 255, 255, 0)" stroke-width="10px" transform="translate(495.59999999999957,234.7199999999998) rotate(-50.75094376690682)" d="M 22.40175425099138 1 L 114.47412662210235 1 L 114.47412662210235 4 L 122.47412662210235 0 L 114.47412662210235 -4 L 114.47412662210235 -1 L 22.40175425099138 -1 Z"/><path class="relationship overlay" fill="rgba(255, 255, 255, 0)" stroke="rgba(255, 255, 255, 0)" stroke-width="10px" transform="translate(591.6799999999993,117.1199999999999) rotate(12.528807709151428)" d="M 29.384776310850235 1 L 148.34007392865357 1 L 148.34007392865357 4 L 156.34007392865357 0 L 148.34007392865357 -4 L 148.34007392865357 -1 L 29.384776310850235 -1 Z"/><circle class="node overlay" r="18.61942946412396" stroke="none" fill="rgba(255, 255, 255, 0)" cx="891.5600000000002" cy="234.7199999999998"/><circle class="node ring" r="23.61942946412396" fill="none" stroke="rgba(255, 255, 255, 0)" stroke-width="10px" cx="891.5600000000002" cy="234.7199999999998"/><path class="relationship overlay" fill="rgba(255, 255, 255, 0)" stroke="rgba(255, 255, 255, 0)" stroke-width="10px" transform="translate(769.8799999999993,156.71999999999963) rotate(32.66091272167368)" d="M 26.20690632574555 1 L 112.91438111319468 1 L 112.91438111319468 4 L 120.91438111319468 0 L 112.91438111319468 -4 L 112.91438111319468 -1 L 26.20690632574555 -1 Z"/><circle class="node overlay" r="16" stroke="none" fill="rgba(255, 255, 255, 0)" cx="1482.76" cy="474.9599999999999"/><circle class="node ring" r="21" fill="none" stroke="rgba(255, 255, 255, 0)" stroke-width="10px" cx="1482.76" cy="474.9599999999999"/><path class="relationship overlay" fill="rgba(255, 255, 255, 0)" stroke="rgba(255, 255, 255, 0)" stroke-width="10px" transform="translate(891.5600000000002,234.7199999999998) rotate(152.33080432088187)" d="M 23.61942946412396 1 L 103.18473243003974 1 L 103.18473243003974 4 L 111.18473243003974 0 L 103.18473243003974 -4 L 103.18473243003974 -1 L 23.61942946412396 -1 Z"/><circle class="node overlay" r="21.20690632574555" stroke="none" fill="rgba(255, 255, 255, 0)" cx="682.8799999999994" cy="429.1199999999997"/><circle class="node ring" r="26.20690632574555" fill="none" stroke="rgba(255, 255, 255, 0)" stroke-width="10px" cx="682.8799999999994" cy="429.1199999999997"/><path class="relationship overlay" fill="rgba(255, 255, 255, 0)" stroke="rgba(255, 255, 255, 0)" stroke-width="10px" transform="translate(495.59999999999957,234.7199999999998) rotate(46.06869272754315)" d="M 22.40175425099138 1 L 235.72856448163077 1 L 235.72856448163077 4 L 243.72856448163077 0 L 235.72856448163077 -4 L 235.72856448163077 -1 L 22.40175425099138 -1 Z"/><circle class="node overlay" r="18.61942946412396" stroke="none" fill="rgba(255, 255, 255, 0)" cx="824.9599999999997" cy="378.9599999999998"/><circle class="node ring" r="23.61942946412396" fill="none" stroke="rgba(255, 255, 255, 0)" stroke-width="10px" cx="824.9599999999997" cy="378.9599999999998"/><path class="relationship overlay" fill="rgba(255, 255, 255, 0)" stroke="rgba(255, 255, 255, 0)" stroke-width="10px" transform="translate(769.8799999999993,298.5199999999998) rotate(55.59923261456642)" d="M 26.20690632574555 1 L 65.87108289477203 1 L 65.87108289477203 4 L 73.87108289477203 0 L 65.87108289477203 -4 L 65.87108289477203 -1 L 26.20690632574555 -1 Z"/><circle class="node overlay" r="16" stroke="none" fill="rgba(255, 255, 255, 0)" cx="1015.1199999999998" cy="736.0799999999997"/><circle class="node ring" r="21" fill="none" stroke="rgba(255, 255, 255, 0)" stroke-width="10px" cx="1015.1199999999998" cy="736.0799999999997"/><circle class="node overlay" r="16" stroke="none" fill="rgba(255, 255, 255, 0)" cx="682.8799999999994" cy="429.1199999999997"/><circle class="node ring" r="21" fill="none" stroke="rgba(255, 255, 255, 0)" stroke-width="10px" cx="682.8799999999994" cy="429.1199999999997"/><path class="relationship overlay" fill="rgba(255, 255, 255, 0)" stroke="rgba(255, 255, 255, 0)" stroke-width="10px" transform="translate(824.9599999999997,378.9599999999998) rotate(160.55490281280606)" d="M 23.61942946412396 1 L 121.67432428917706 1 L 121.67432428917706 4 L 129.67432428917706 0 L 121.67432428917706 -4 L 121.67432428917706 -1 L 23.61942946412396 -1 Z"/><circle class="node overlay" r="16" stroke="none" fill="rgba(255, 255, 255, 0)" cx="1482.76" cy="378.9599999999998"/><circle class="node ring" r="21" fill="none" stroke="rgba(255, 255, 255, 0)" stroke-width="10px" cx="1482.76" cy="378.9599999999998"/></g></svg>